<?xml version="1.0" encoding="utf-8"?>
<!-- Generator: Adobe Illustrator 16.0.3, SVG Export Plug-In . SVG Version: 6.00 Build 0)  -->
<!DOCTYPE svg PUBLIC "-//W3C//DTD SVG 1.1//EN" "http://www.w3.org/Graphics/SVG/1.1/DTD/svg11.dtd">
<svg version="1.1" id="Layer_1" xmlns="http://www.w3.org/2000/svg" xmlns:xlink="http://www.w3.org/1999/xlink" x="0px" y="0px"
	 width="360px" height="360px" viewBox="0 0 360 360" enable-background="new 0 0 360 360" xml:space="preserve">
<g>
	<g>
		<g>
			<path fill="#F2F2F2" d="M108.906,60.645c-5.664-0.069-18.274-1.485-18.817,7.104c-0.199,3.162,1.866,5.292,3.786,7.545
				c4.076,4.784-0.73,9.974-3.994,13.631c-7.548,8.46-15.521,14.974-20.805,25.224c-6.252,12.127-8.917,25.699-7.885,39.275
				c1.009,13.26,5.684,27.516,13.281,38.461c2.857,4.116,7.614,10.556,4.836,15.813c-1.895,3.585-4.026,5.936-4.571,10.198
				c-2.478,19.346,21.652,18.205,34.575,18.021c31.292-0.444,62.413-1.373,93.589-4.332c15.622-1.481,31.154-3.554,46.708-5.599
				c8.319-1.095,17.112,1.615,25.232-1.352c2.563-0.936,5.846-4.073,5.887-6.974c0.018-1.274-0.295-2.304-1.086-3.315
				c-1.81-2.315-2.963-3.895-3.543-6.88c-0.304-1.565-0.952-3.17-1.008-4.769c-0.036-1.041,2.763-3.053,3.396-3.666
				c5.262-5.093,11.715-8.664,17.023-13.706c15.184-14.424,18.303-38.68,15.813-58.382c-1.313-10.39-4.438-20.48-9.146-29.828
				c-4.65-9.231-10.616-15.989-19.286-21.485c-2.153-1.365-10.558-8.497-6.243-10.937c2.586-1.462,4.476-3.52,4.637-6.652
				c0.373-7.269-2.93-12.446-10.389-13.471c-7.658-1.054-15.779,1.489-22.992,3.788c-11.868,3.783-23.999,6.657-36.249,8.93
				c-14.892,2.763-29.986,4.025-45.122,4.17c-12.095,0.117-24.154,1.258-36.252,1.245c-5.896-0.006-11.88-0.33-17.567-1.987
				c-2.472-0.72-3.52,3.124-1.059,3.84c10.801,3.146,22.646,2.243,33.732,1.693c13.123-0.65,26.287-0.602,39.39-1.524
				c13.99-0.984,27.852-3.309,41.521-6.398c10.202-2.306,20.008-5.686,30.104-8.288c6.182-1.594,19.736-4.732,20.923,4.792
				c0.564,4.53-1.464,5.3-4.439,7.616c-2.555,1.988-1.049,5.715-0.036,8.037c1.877,4.305,5.251,6.824,9.115,9.274
				c5.175,3.28,8.832,6.787,12.323,11.838c6.298,9.11,10.1,19.787,12.261,30.583c4.446,22.212,0.579,49.677-18.452,64.244
				c-4.891,3.744-9.688,7.123-14.111,11.432c-1.982,1.931-3.115,3.572-2.712,6.386c0.49,3.42,1.149,7.729,3.421,10.44
				c1.905,2.274,2.537,3.979-0.705,5.994c-2.069,1.287-5.229,1.215-7.553,1.338c-4.549,0.238-9.117-0.069-13.668-0.113
				c-6.396-0.063-12.868,1.46-19.19,2.272c-15.915,2.047-31.884,3.668-47.881,4.925c-28.502,2.239-57.226,3.282-85.817,2.895
				c-6.354-0.087-14.548-0.249-19.308-5.104c-5.891-6.008,0.705-13.36,3-18.995c3.354-8.236-5.539-16.95-9.003-23.34
				c-6.207-11.449-9.61-24.825-9.664-37.817c-0.055-13.278,4.556-25.936,11.303-37.203c4.521-7.549,12.429-13.012,18.118-19.653
				c4.055-4.731,7.304-10.587,3.225-16.311c-1.874-2.63-6.195-6.424-0.676-8.319c3.719-1.278,8.167-0.668,12.031-0.621
				C111.476,64.659,111.473,60.676,108.906,60.645L108.906,60.645z"/>
		</g>
	</g>
	<g>
		<path fill="#F15A24" d="M148.184,164.558c-6.172,1.852-12.963,9.259-14.814,14.814c4.938,1.853,11.111,1.234,16.667-0.617
			c-2.47,48.766,86.42,40.741,104.938,11.729c4.938-8.642,5.556-13.58,14.197-16.667c10.494-4.32,12.346-5.556,1.234-13.58
			c-16.049-11.111-17.284-27.777-38.889-32.099c-19.753-4.321-12.963-14.815-19.136-28.395c-4.938,4.321-5.556,14.198-9.877,19.753
			c-4.938,7.408-9.876,7.408-17.901,11.111c-13.58,6.79-26.543,19.753-35.185,32.099"/>
	</g>
	<g>
		<g>
			<path fill="#F2F2F2" d="M142.561,129.284c0.886,3.079,3.061,5.279,5.854,6.746c0.575,0.303,1.447,0.433,2.01,0
				c2.399-1.845,3.757-4.404,2.897-7.454c-0.877-3.109-4.053-5.019-7.077-5.445c-2.511-0.354-3.593,3.483-1.059,3.84
				c1.575,0.222,3.104,0.727,4.02,2.111c0.822,1.242,0.328,2.648-0.791,3.509c0.67,0,1.34,0,2.01,0
				c-1.882-0.989-3.418-2.261-4.023-4.366C145.691,125.762,141.849,126.811,142.561,129.284L142.561,129.284z"/>
		</g>
	</g>
	<g>
		<g>
			<path fill="#F2F2F2" d="M159.427,100.59c-2.434,3.927-5.984,10.823-1.211,14.453c1.497,1.138,3.549,1.184,5.325,0.938
				c1.658-0.23,3.333-0.918,4.684-1.906c1.496-1.094,2.869-2.596,3.217-4.482c0.424-2.295-0.496-4.384-2.103-6.013
				c-1.779-1.804-4.123-2.938-6.428-3.903c-1.003-0.42-2.189,0.445-2.449,1.391c-0.316,1.148,0.39,2.031,1.391,2.449
				c-0.638-0.267,0.064,0.03,0.21,0.095c0.187,0.083,0.372,0.168,0.557,0.255c0.375,0.176,0.744,0.363,1.108,0.559
				c0.612,0.329,1.207,0.691,1.774,1.091c0.122,0.086,0.241,0.174,0.359,0.264c-0.61-0.463-0.154-0.118-0.016-0.003
				c0.22,0.182,0.43,0.374,0.633,0.573c0.171,0.168,0.333,0.345,0.487,0.528c0.037,0.043,0.072,0.087,0.108,0.132
				c0.18,0.223-0.347-0.455-0.177-0.228c0.075,0.1,0.146,0.202,0.214,0.306c0.11,0.167,0.21,0.342,0.301,0.521
				c0.087,0.171,0.257,0.587-0.063-0.174c0.041,0.098,0.077,0.199,0.111,0.299c0.056,0.166,0.099,0.336,0.132,0.508
				c0.088,0.448-0.046-0.403-0.026-0.237c0.011,0.096,0.017,0.192,0.021,0.289c0.006,0.163-0.002,0.325-0.018,0.487
				c-0.033,0.347,0.103-0.659,0.032-0.25c-0.017,0.092-0.037,0.184-0.06,0.274c-0.039,0.156-0.091,0.31-0.148,0.46
				c-0.122,0.32,0.261-0.587,0.09-0.214c-0.04,0.087-0.084,0.172-0.129,0.256c-0.078,0.146-0.167,0.288-0.26,0.426
				c-0.047,0.07-0.097,0.138-0.146,0.206c-0.153,0.206,0.367-0.471,0.207-0.269c-0.035,0.045-0.071,0.089-0.108,0.133
				c-0.234,0.281-0.498,0.538-0.774,0.776c-0.068,0.059-0.139,0.116-0.208,0.172c-0.279,0.224,0.499-0.375,0.15-0.118
				c-0.16,0.118-0.325,0.229-0.493,0.336c-0.327,0.209-0.67,0.394-1.021,0.56c-0.085,0.041-0.17,0.079-0.256,0.116
				c-0.141,0.062,0.607-0.248,0.173-0.075c-0.188,0.075-0.38,0.143-0.572,0.206c-0.365,0.12-0.739,0.215-1.117,0.288
				c-0.089,0.018-0.178,0.033-0.268,0.047c-0.436,0.07,0.58-0.072,0.218-0.028c-0.19,0.023-0.381,0.038-0.572,0.046
				c-0.354,0.017-0.709,0.003-1.062-0.039c0.917,0.11,0.239,0.032,0.008-0.02c-0.167-0.038-0.332-0.085-0.494-0.142
				c-0.073-0.025-0.146-0.053-0.217-0.083c0.766,0.313,0.404,0.175,0.231,0.09c-0.147-0.072-0.289-0.157-0.425-0.249
				c-0.349-0.235,0.324,0.26,0.192,0.155c-0.059-0.047-0.115-0.097-0.171-0.147c-0.121-0.111-0.231-0.234-0.333-0.362
				c0.543,0.683,0.146,0.184,0.03-0.02c-0.04-0.07-0.076-0.143-0.11-0.215c-0.143-0.299,0.238,0.618,0.073,0.167
				c-0.061-0.166-0.106-0.336-0.145-0.508c-0.021-0.091-0.037-0.183-0.052-0.274c-0.044-0.273,0.079,0.615,0.046,0.338
				c-0.008-0.065-0.014-0.131-0.02-0.197c-0.037-0.459-0.011-0.923,0.046-1.38c-0.112,0.896,0.021-0.055,0.072-0.292
				c0.064-0.301,0.145-0.599,0.232-0.894c0.089-0.301,0.189-0.597,0.297-0.892c0.058-0.158,0.118-0.314,0.18-0.47
				c0.032-0.081,0.065-0.161,0.098-0.241c0.127-0.308-0.226,0.523-0.025,0.064c0.594-1.362,1.325-2.662,2.107-3.923
				c0.572-0.923,0.203-2.187-0.715-2.724C161.197,99.316,159.998,99.669,159.427,100.59L159.427,100.59z"/>
		</g>
	</g>
	<g>
		<g>
			<path fill="#F2F2F2" d="M132.664,78.687c-14.199-3.014-18.807,18.794-5.919,23.522c5.575,2.045,14.305,1.302,15.068-6.017
				c0.704-6.754-4.157-13.463-9.291-17.304c-2.059-1.541-4.04,1.919-2.01,3.438c3.455,2.586,6.038,6.417,7.135,10.583
				c1.518,5.764-3.631,6.974-8.296,5.965c-9.363-2.024-7.753-18.471,2.254-16.348C134.11,83.059,135.176,79.22,132.664,78.687
				L132.664,78.687z"/>
		</g>
	</g>
	<g>
		<path fill="#F2F2F2" d="M182.166,157.5c-3.667,0.334-9.167,7.834-11,10.834c-2.5,4.166-4,10.833-3.5,15.666
			c0.833,7.834,5,14.334,13,16.334c4.167,1,10.5,1.666,14.5-0.167c4.667-2,8.833-6.833,10.833-11.333
			c4-8.334,2.667-21.667-4.166-28.5c-4.5-4.667-15-8.167-20.5-3.334"/>
	</g>
	<g>
		<path fill="#F2F2F2" d="M218.333,151.167c-4.834,6.833-6.5,15-7.334,23.167c-0.833,8.5-3.5,15,4.167,21.5
			c5.5,4.666,14.5,5,21.333,4c9.667-1.5,14.667-11.167,18.167-19.5c3-7.334,3-14.5-1.333-21.167c-4-6-9-7.333-15.834-8.5
			c-6.666-1-18-2.833-21.666,4.833"/>
	</g>
	<g>
		<path d="M186.499,176.834c-4.833-0.334-9.666,10.5-8.666,14.666c1.333,6,8.833,8.334,13.833,6.167
			c5.833-2.333,9.667-8.833,7.833-15c-1.166-4-4.5-8.333-9.166-7.667c-1.5,0.334-3.5,1.167-4.834,2"/>
	</g>
	<g>
		<path d="M231.999,174c-7.166-1.666-14.333,7.834-13.833,14.334c0.5,5.833,4.5,9.166,10.333,8.5c7.5-0.667,12-5.5,11.5-13
			c-0.333-4.334-2.666-10.5-7.666-10"/>
	</g>
	<g>
		<path fill="#F2F2F2" d="M205.999,202c-4.75,0.5-5.75,8.25-0.25,8.25c5.75,0,4-5.75,1.75-8.5"/>
	</g>
	<g>
		<g>
			<g>
				<path fill="#F2F2F2" d="M47.748,254.528c4.556,20.902,4.301,42.507,9.334,63.334c0.603,2.496,4.443,1.437,3.84-1.059
					c-5.032-20.823-4.777-42.43-9.334-63.334C51.041,250.961,47.202,252.025,47.748,254.528L47.748,254.528z"/>
			</g>
		</g>
		<g>
			<g>
				<path fill="#F2F2F2" d="M48.335,256.657c6.45-0.002,12.856-0.094,19.196-1.404c2.515-0.52,1.447-4.358-1.059-3.84
					c-5.987,1.237-12.05,1.26-18.138,1.262C45.767,252.676,45.767,256.658,48.335,256.657L48.335,256.657z"/>
			</g>
		</g>
		<g>
			<g>
				<path fill="#F2F2F2" d="M53.668,288.657c3.333,0,6.667,0,10,0c2.568,0,2.568-3.982,0-3.982c-3.333,0-6.667,0-10,0
					C51.1,284.675,51.1,288.657,53.668,288.657L53.668,288.657z"/>
			</g>
		</g>
		<g>
			<g>
				<path fill="#F2F2F2" d="M75.748,255.195c6.493,19.478-1.817,39.771-2.737,59.471c-0.12,2.568,3.863,2.557,3.982,0
					c0.938-20.105,9.235-40.609,2.595-60.529C78.78,251.713,74.934,252.752,75.748,255.195L75.748,255.195z"/>
			</g>
		</g>
		<g>
			<g>
				<path fill="#F2F2F2" d="M111.668,252.675c-6.449-0.658-19.412-0.205-21.846,7.403c-2.354,7.359,13.178,14.505,17.506,17.466
					c4.938,3.377,8.33,6.663,9.878,12.598c1.364,5.231-0.125,10.671-3.02,15.079c-2.436,3.709-6.646,6.778-11.11,7.306
					c-5.722,0.675-8.813-4.206-10.154-9.057c-0.684-2.472-4.525-1.421-3.84,1.059c2.405,8.702,9.35,14.279,18.428,10.963
					c8.747-3.196,14.074-12.527,14.149-21.53c0.102-12.065-9.364-17.958-18.317-23.843c-2.36-1.551-12.912-7.347-8.294-10.732
					c4.245-3.112,11.595-3.241,16.62-2.729C114.223,256.918,114.197,252.933,111.668,252.675L111.668,252.675z"/>
			</g>
		</g>
		<g>
			<g>
				<path fill="#F2F2F2" d="M123.011,253.333c0.446,7.529,0.588,15.113,1.658,22.59c0.779,5.444,2.11,10.708,2.618,16.191
					c0.442,4.782,0.745,9.577,1.168,14.362c0.219,2.462,0.026,6.372,1.493,8.527c1.436,2.109,4.889,0.12,3.439-2.01
					c-1.266-1.859-0.938-6.338-1.129-8.594c-0.377-4.438-0.675-8.884-1.085-13.319c-0.396-4.272-1.314-8.322-2.1-12.537
					c-1.543-8.284-1.583-16.822-2.081-25.211C126.842,250.781,122.858,250.767,123.011,253.333L123.011,253.333z"/>
			</g>
		</g>
		<g>
			<g>
				<path fill="#F2F2F2" d="M153.948,252.328c-5.022,8.518-6.232,18.768-6.573,28.478c-0.379,10.8,0.77,21.978,3.707,32.39
					c0.696,2.468,4.539,1.418,3.84-1.059c-2.606-9.241-3.567-18.86-3.607-28.44c-0.042-9.854,0.97-20.705,6.073-29.358
					C158.695,252.121,155.252,250.118,153.948,252.328L153.948,252.328z"/>
			</g>
		</g>
		<g>
			<g>
				<path fill="#F2F2F2" d="M127.997,285.719c6.242,3.469,12.973,1.687,19.534,0.2c2.505-0.567,1.442-4.406-1.059-3.84
					c-5.399,1.223-11.287,3.078-16.466,0.2C127.76,281.031,125.752,284.471,127.997,285.719L127.997,285.719z"/>
			</g>
		</g>
		<g>
			<g>
				<path fill="#F2F2F2" d="M185.081,254.528c3.277,18.853,7.14,37.59,7.263,56.805c0.017,2.567,3.999,2.569,3.982,0
					c-0.125-19.568-4.067-38.664-7.405-57.863C188.481,250.942,184.645,252.018,185.081,254.528L185.081,254.528z"/>
			</g>
		</g>
		<g>
			<g>
				<path fill="#F2F2F2" d="M186.864,255.919c7.287-1.393,18.558-5.181,21.279,4.552c3.041,10.875-6.985,16.999-14.813,21.809
					c-1.596,0.98-1.057,3.857,1.005,3.711c4.917-0.35,9.325-3.338,13.877-4.974c8.655-3.11,6.792,6.969,6.034,12.318
					c-0.741,5.228-0.017,10.474-0.779,15.677c-1.43,9.76-14.464,5.307-18.391,0.246c-1.573-2.027-4.37,0.813-2.816,2.816
					c4.627,5.963,12.623,8.263,19.587,5.304c7.932-3.371,5.37-13.738,5.911-20.391c0.502-6.181,3.783-15.552-2.458-19.861
					c-6.067-4.189-14.997,4.458-20.965,4.882c0.335,1.236,0.67,2.474,1.005,3.711c10.469-6.432,20.114-13.895,16.293-27.563
					c-3.221-11.516-17.427-7.684-25.827-6.077C183.285,252.561,184.355,256.398,186.864,255.919L186.864,255.919z"/>
			</g>
		</g>
		<g>
			<g>
				<path fill="#F2F2F2" d="M223.01,252.666c0,12.203-0.368,24.471,0.043,36.667c0.21,6.227,1.135,12.669,3.282,18.532
					c1.569,4.282,4.596,8.983,9.742,8.59c6.633-0.508,10.252-7.404,11.421-13.095c2.636-12.828,0.149-27.244-4.076-39.476
					c-2.741-7.933-10.516-23.46-19.829-12.627c-1.665,1.937,1.14,4.767,2.816,2.816c7.563-8.798,13.14,10.397,14.669,15.531
					c2.956,9.927,3.949,20.449,2.878,30.762c-0.416,4.005-3.859,14.623-9.94,11.841c-4.001-1.831-5.09-8.981-5.838-12.736
					c-1.051-5.275-1.186-10.583-1.186-15.939c0-10.289,0-20.577,0-30.866C226.992,250.098,223.01,250.098,223.01,252.666
					L223.01,252.666z"/>
			</g>
		</g>
		<g>
			<g>
				<path fill="#F2F2F2" d="M250.26,252.741c8.135,9.368,8.743,23.471,9.417,35.258c0.547,9.565-7.108,18.887-4.596,28.529
					c0.345,1.326,1.791,1.729,2.925,1.19c10.756-5.115,16.026-18.52,16.986-29.72c-1.304,0.177-2.607,0.353-3.911,0.529
					c4.329,10.284,5.867,20.979,15.179,28.213c1.02,0.792,3.084,0.785,3.328-0.879c3.232-21.983-3.688-43.48-5.929-65.196
					c-0.261-2.528-4.246-2.554-3.982,0c2.193,21.255,9.232,42.636,6.071,64.138c1.109-0.293,2.219-0.586,3.328-0.879
					c-8.723-6.777-10.105-16.837-14.155-26.455c-0.866-2.058-3.711-1.811-3.911,0.529c-0.847,9.877-5.564,21.786-15.014,26.28
					c0.975,0.397,1.95,0.794,2.925,1.19c-1.321-5.071,1.339-11.284,2.663-16.148c1.436-5.271,2.184-10.001,1.82-15.455
					c-0.782-11.735-2.328-24.728-10.328-33.941C251.39,247.982,248.585,250.812,250.26,252.741L250.26,252.741z"/>
			</g>
		</g>
		<g>
			<g>
				<path fill="#F2F2F2" d="M295.081,251.195c4.858,19.946,13.455,44.305,2.867,63.799c-0.703,1.294,0.166,3.026,1.72,2.996
					c7.409-0.145,14.725-1.752,22.138-0.737c2.51,0.344,3.594-3.493,1.059-3.84c-7.816-1.07-15.384,0.442-23.196,0.595
					c0.573,0.999,1.146,1.997,1.72,2.996c11.195-20.612,2.678-45.747-2.467-66.867C298.313,247.643,294.473,248.7,295.081,251.195
					L295.081,251.195z"/>
			</g>
		</g>
	</g>
</g>
</svg>
